<svg xmlns="http://www.w3.org/2000/svg" viewBox="0 0 112 112" width="32" height="32">
    <rect fill="#000000" width="100%" height="100%" rx="24" />
    <path
        fill="#ffffff"
        d="m28.0519 23h-11.05c-1.365 0-2.329 1.3374-1.898 2.6325l.062.1831c.04.1226.093.2411.157.3535l16.345 28.8449c.347.6116.347 1.3604 0 1.972l-16.345 28.8449c-.064.1125-.117.2309-.157.3535l-.062.1831c-.431 1.2951.533 2.6325 1.898 2.6325h10.57c.715 0 1.375-.3814 1.732-1.0006l13.846-23.9988c.357-.6192 1.017-1.0006 1.732-1.0006h20.209c.704 0 1.357.3707 1.718.9759l14.336 24.0482c.361.6052 1.014.9759 1.718.9759h11.589c1.365 0 2.329-1.3374 1.898-2.6325l-.058-.1711c-.043-.1306-.1-.2563-.169-.3753l-16.808-28.8134c-.363-.6227-.363-1.3927 0-2.0154l16.808-28.8135c.069-.1189.126-.2446.169-.3752l.058-.1711c.431-1.2951-.533-2.6325-1.898-2.6325h-11.107c-.695 0-1.34.3603-1.704.9518l-14.828 24.0964c-.364.5915-1.009.9518-1.704.9518h-20.207c-.726 0-1.394-.3925-1.747-1.0259l-13.356-23.9482c-.353-.6334-1.021-1.0259-1.747-1.0259z"
    />
</svg>
